<svg width="43" height="43" viewBox="0 0 43 43" fill="none" xmlns="http://www.w3.org/2000/svg">
<rect x="1.52148" y="1" width="40.3112" height="41" rx="20.1556" stroke="black" stroke-width="2"/>
<path fill-rule="evenodd" clip-rule="evenodd" d="M28.0245 17.2C28.0245 20.7622 25.1829 23.65 21.6778 23.65C18.1726 23.65 15.3311 20.7622 15.3311 17.2C15.3311 13.6378 18.1726 10.75 21.6778 10.75C25.1829 10.75 28.0245 13.6378 28.0245 17.2ZM25.9089 17.2C25.9089 19.5748 24.0146 21.5 21.6778 21.5C19.341 21.5 17.4466 19.5748 17.4466 17.2C17.4466 14.8252 19.341 12.9 21.6778 12.9C24.0146 12.9 25.9089 14.8252 25.9089 17.2Z" fill="black"/>
<path d="M21.6778 26.875C14.8293 26.875 8.99421 30.9905 6.77148 36.7564C7.31296 37.3029 7.88336 37.8197 8.48015 38.3045C10.1353 33.0108 15.3276 29.025 21.6778 29.025C28.0279 29.025 33.2203 33.0108 34.8754 38.3045C35.4722 37.8198 36.0426 37.3029 36.5841 36.7565C34.3613 30.9905 28.5263 26.875 21.6778 26.875Z" fill="black"/>
</svg>
