<svg width="36" height="37" viewBox="0 0 36 37" fill="none" xmlns="http://www.w3.org/2000/svg">
<rect x="1" y="1" width="34" height="35" rx="17" stroke="white" stroke-width="2"/>
<path fill-rule="evenodd" clip-rule="evenodd" d="M23.4002 14.8C23.4002 17.8652 20.9826 20.35 18.0002 20.35C15.0179 20.35 12.6002 17.8652 12.6002 14.8C12.6002 11.7348 15.0179 9.25 18.0002 9.25C20.9826 9.25 23.4002 11.7348 23.4002 14.8ZM21.6002 14.8C21.6002 16.8435 19.9884 18.5 18.0002 18.5C16.012 18.5 14.4002 16.8435 14.4002 14.8C14.4002 12.7565 16.012 11.1 18.0002 11.1C19.9884 11.1 21.6002 12.7565 21.6002 14.8Z" fill="white"/>
<path d="M18.0002 23.125C12.1733 23.125 7.20857 26.6663 5.31738 31.6276C5.77809 32.0978 6.26341 32.5426 6.77118 32.9597C8.17945 28.4046 12.5973 24.975 18.0002 24.975C23.4032 24.975 27.821 28.4046 29.2293 32.9597C29.737 32.5426 30.2224 32.0978 30.6831 31.6277C28.7919 26.6663 23.8272 23.125 18.0002 23.125Z" fill="white"/>
</svg>
