<svg xmlns="http://www.w3.org/2000/svg" viewBox="0 0 360.28 384.09"><title>ajuda</title><g id="Layer_2" data-name="Layer 2"><g id="Layer_1-2" data-name="Layer 1"><path d="M206,.56c6.5,1,13.07,1.69,19.5,3q95.61,19.93,134,109.79a161.61,161.61,0,0,1,12.67,78c-6.57,76.33-46.06,129.28-116.9,157.52-46,18.32-92.34,15.68-137.53-4.66-2.44-1.09-3.89-.91-5.79,1Q94.46,363,76.71,380.58c-5.35,5.31-12.92,5.5-17.08.08a14.48,14.48,0,0,1-2.74-8.21c-.22-23.37-.07-46.74-.22-70.11a10.11,10.11,0,0,0-2.13-6C32.68,270,18.77,239.89,14.29,205.94,7.21,152.33,21,104.4,56.13,63.15,84,30.48,119.56,10.87,161.69,3.08,167.42,2,173.23,1.39,179,.56ZM79.24,346.06c8-8,15.31-15.33,22.62-22.63,6.7-6.71,10.11-7.21,18.55-2.9,32.62,16.64,66.93,21.63,102.84,14.41A157.43,157.43,0,0,0,169.94,24.75c-30.5,4.38-57.73,16.6-80.69,37.25-42,37.73-59.54,85-52.5,140.87,3.9,31,17,58.25,37.7,81.68a18.13,18.13,0,0,1,4.87,13.2C79.08,313.48,79.24,329.22,79.24,346.06Z" transform="translate(-12.49 -0.56)"/><path d="M203.74,214.34c0,7.79,0,15.15,0,22.52,0,7-4.71,11.91-11.21,11.91s-11.23-4.91-11.25-11.88q0-16.11,0-32.24c0-7.42,4.35-11.85,11.76-12.09,25.09-.84,44.6-20.73,44.48-45.36-.11-23.29-18.86-43.17-42.09-44.63A45.09,45.09,0,0,0,148.1,141c-.32,2.22-.5,4.47-.61,6.7a11.29,11.29,0,0,1-11.38,11.05A11.14,11.14,0,0,1,125,147.52c-.62-32.65,24.68-62.17,57.21-66.75C218.86,75.6,252.05,99.1,259,135.15c6.81,35.31-16.58,70.72-51.73,78.34C206.18,213.73,205.1,214,203.74,214.34Z" transform="translate(-12.49 -0.56)"/><path d="M181.28,282.39a11.22,11.22,0,0,1,22.44.06,11.22,11.22,0,1,1-22.44-.06Z" transform="translate(-12.49 -0.56)"/></g></g></svg>