<svg xmlns="http://www.w3.org/2000/svg" viewBox="0 0 352.1 304.08"><defs><style>.cls-1{fill:#fff;}</style></defs><title>Asset 1</title><g id="Layer_2" data-name="Layer 2"><g id="Layer_1-2" data-name="Layer 1"><path class="cls-1" d="M176,44.91c5.89-5.9,11.33-11.39,16.81-16.83Q224.75-3.59,269.5.65c38.88,3.66,73.23,34.75,80.56,73.43,5.62,29.71-.7,57.57-14.61,84-8.95,17-21.8,30.6-36.29,43Q241.39,250.27,184,299.91c-6.52,5.6-9.2,5.55-15.8-.11Q108.93,249.06,49.68,198.35,7.57,162.43.8,107.61C-4.3,66.36,15.18,28.27,50.86,10.14S129.27-1.38,158.23,27C164.12,32.71,169.84,38.65,176,44.91Zm0,240.51c1.05-.81,1.85-1.38,2.6-2q49-41.94,97.9-83.91c11.72-10.09,24.18-19.45,33.68-31.9,19.29-25.28,29-53.69,24.86-85.46-3.74-28.62-20-49.13-46.61-60.07-26.9-11-52.93-7.61-76,10.27-10.59,8.22-19.54,18.56-29.19,28-5.23,5.1-9.21,5.11-14.42-.11q-10-10.08-20.1-20.19c-18.63-18.63-41-26.4-67.17-23-34.3,4.43-63.43,35.16-65.12,69.69-1.85,37.51,11,69.65,38.78,94.84,25.64,23.23,52.37,45.26,78.64,67.8C147.81,261.29,161.76,273.22,176,285.42Z"/></g></g></svg>