<svg xmlns="http://www.w3.org/2000/svg" viewBox="0 0 303.36 323.97"><title>Asset 2</title><g id="Layer_2" data-name="Layer 2"><g id="Layer_1-2" data-name="Layer 1"><path d="M253.49,100.31c16.58-9.92,31.59-3.74,38.91,5.82,7.43,9.71,9.94,26.56-6.25,41l4.39,3.31.69,1.18a25.11,25.11,0,0,1,2.72-3.95c2.85-2.87,6.48-3.05,9-.68,2.69,2.54,2.6,6.17-.46,9.25Q285.3,173.47,268,190.67c-3.89,3.89-7.67,7.89-11.71,11.62a8.72,8.72,0,0,0-2.91,7.18c.11,32.62.07,65.24.06,97.85,0,12.46-7.26,19.66-19.82,19.66H21.09c-12.24,0-19.57-7.31-19.57-19.52q0-142.47,0-284.93C1.52,10.27,8.79,3,21.09,3Q127.38,3,233.67,3c12.57,0,19.81,7.17,19.81,19.65q0,36.55,0,73.11Zm-12.36,91.8c-1.12,1.06-1.94,1.82-2.73,2.6q-34.59,34.6-69.25,69.15a18.46,18.46,0,0,1-7.58,4.27c-5.12,1.49-10.52,2.07-15.68,3.48-9.37,2.56-20.18,1.73-26.84,11a2.32,2.32,0,0,1-1.3.69c-2.62.6-5,.23-6.72-2.06s-1.92-4.66-.25-6.94c1.18-1.6,2.89-2.81,4-4.43,1.37-2,2.94-4.05,3.47-6.31,2.5-10.55,4.52-21.21,7.07-31.75a16.14,16.14,0,0,1,4-7.3q54.85-55.17,109.86-110.19a8.52,8.52,0,0,0,2.25-5.44c.14-28.5.1-57,.09-85.49,0-6.43-2-8.39-8.59-8.39H22.2c-6.81,0-8.71,1.89-8.71,8.64V306.34c0,6.77,1.91,8.67,8.69,8.67H232.9c6.71,0,8.61-1.93,8.61-8.75q0-42.75,0-85.49V217c-3.8.91-6.63.17-8.26-3.17s.08-5.73,2.38-7.92a16.22,16.22,0,0,1,1.87-1.84C241.7,201.21,242.23,197.18,241.13,192.11Zm11.19-29.28-21.65-21.65-87.5,87.34,21.64,21.63Zm-12.55-31.51,22.07,21.89c6.73-6.5,14.06-12.93,20.59-20.09,5.45-6,4.44-15.43-1.27-21.06s-15.14-6.47-21.09-1C252.91,117.56,246.32,124.72,239.77,131.32ZM134.3,240.48c-1.68,7.83-3.34,15.53-5.1,23.78L152.84,259Zm119.36-53.82L281,159.41l-3.39-4.09c-6.9,7-13.29,14-20.3,20.26C253.52,179,253,182.63,253.66,186.66Z" transform="translate(-1.51 -3.01)"/><path d="M127.68,51h75.37a18.9,18.9,0,0,1,3.37.07,5.65,5.65,0,0,1,5,5.62,5.83,5.83,0,0,1-4.84,6.18,17.64,17.64,0,0,1-3,.09Q127.5,63,51.38,63a18.74,18.74,0,0,1-3-.08,5.84,5.84,0,0,1-4.84-6.18,5.64,5.64,0,0,1,5-5.63A18.92,18.92,0,0,1,51.93,51Z" transform="translate(-1.51 -3.01)"/><path d="M127.12,93H51.75a21,21,0,0,1-3.37-.09,5.82,5.82,0,0,1-4.84-6.17,5.64,5.64,0,0,1,5-5.63,15.78,15.78,0,0,1,3-.07H203.43a15.65,15.65,0,0,1,3,.07,5.66,5.66,0,0,1,5,5.62,5.83,5.83,0,0,1-4.84,6.18,21,21,0,0,1-3.37.09Z" transform="translate(-1.51 -3.01)"/><path d="M127.57,123H51.82a22.26,22.26,0,0,1-3.37-.08,5.8,5.8,0,0,1-4.91-6.11c.14-3.18,1.91-5,5-5.7a12.7,12.7,0,0,1,2.62-.07H203.74a19.07,19.07,0,0,1,2.62,0,6,6,0,0,1-.05,11.86,27,27,0,0,1-3.37,0Z" transform="translate(-1.51 -3.01)"/><path d="M82.5,153q-15.75,0-31.5,0c-4.87,0-7.42-2-7.48-5.89S46.05,141,50.81,141q31.68,0,63.37,0c4.76,0,7.35,2.19,7.29,6.07S118.88,153,114,153Q98.25,153,82.5,153Z" transform="translate(-1.51 -3.01)"/></g></g></svg>