<svg xmlns="http://www.w3.org/2000/svg" viewBox="0 0 336.09 308.61"><title>HISTORICOAsset 1</title><g id="Layer_2" data-name="Layer 2"><g id="Layer_1-2" data-name="Layer 1"><path d="M52.1,152.48c6.51,0,12.11,0,17.71,0,10.43.1,16,9.43,10.87,18.49q-13.4,23.61-27.16,47c-5.28,9-16.21,8.93-21.51-.1q-13.63-23.25-27-46.68c-5.28-9.26.23-18.61,10.89-18.71,4.1-.05,8.19,0,11.91,0,1.53-9.77,2.4-19.23,4.55-28.4,11-47.15,38.26-82,81-104.44C137.36,7.06,163.1,1.73,190.05,2.78c70.81,2.78,130.69,53.31,145.76,122.8,15.34,70.73-24,146.1-91.76,173-60.33,23.93-115.69,13.87-165-28.41-5.94-5.09-6.53-12.68-1.83-17.87s12.07-5.26,18,0c19.15,17.18,41.25,28.31,66.69,32.44,38,6.17,72.5-2.5,102.81-26.12,28.88-22.5,45.17-52.54,49.52-88.8,7.91-66-37.54-128.91-102.58-142.56C139.29,12.1,70,57.5,55.08,130,53.6,137.15,53.13,144.53,52.1,152.48Z" transform="translate(-3.02 -2.65)"/><path d="M159.1,113.58q0-27,0-54a12,12,0,0,1,23.47-3.45,19.32,19.32,0,0,1,.47,5.17c0,31.73.1,63.46-.1,95.18,0,4,1.34,6.31,4.31,8.65,16.67,13.14,33.17,26.49,49.79,39.7,4.36,3.46,6.93,7.6,5.72,13.27-1.9,8.88-12,12.33-19.44,6.53-11-8.6-21.88-17.42-32.8-26.16-8.39-6.7-16.7-13.51-25.19-20.07A15.1,15.1,0,0,1,159,165.29C159.25,148.05,159.1,130.81,159.1,113.58Z" transform="translate(-3.02 -2.65)"/></g></g></svg>