<svg xmlns="http://www.w3.org/2000/svg" viewBox="0 0 50 50"><defs><style>.cls-1{fill:none;stroke:#fff;stroke-width:3px;}.cls-2,.cls-3{fill:#fff;}.cls-2{fill-rule:evenodd;}</style></defs><title>Asset 2</title><g id="Layer_2" data-name="Layer 2"><g id="Layer_1-2" data-name="Layer 1"><path class="cls-1" d="M25,1.5h0A23.5,23.5,0,0,1,48.5,25h0A23.5,23.5,0,0,1,25,48.5h0A23.5,23.5,0,0,1,1.5,25h0A23.5,23.5,0,0,1,25,1.5Z"/><path class="cls-2" d="M32.5,20A7.5,7.5,0,1,1,25,12.5,7.5,7.5,0,0,1,32.5,20ZM30,20a5,5,0,1,1-5-5A5,5,0,0,1,30,20Z"/><path class="cls-3" d="M25,31.25A18.73,18.73,0,0,0,7.39,42.74a24.38,24.38,0,0,0,2,1.8c2-6.16,8.1-10.79,15.6-10.79s13.64,4.63,15.6,10.79a24.51,24.51,0,0,0,2-1.8A18.76,18.76,0,0,0,25,31.25Z"/></g></g></svg>