<svg xmlns="http://www.w3.org/2000/svg" viewBox="0 0 392.58 392.64"><defs><style>.cls-1{fill:#fff;}</style></defs><title>sair</title><g id="Layer_2" data-name="Layer 2"><g id="Layer_1-2" data-name="Layer 1"><path class="cls-1" d="M81.5,393.06H.37Q.36,196.77.36.42H392.94V393.06H194c4.73-2.44,9-5.36,9.89-11.14,1.48-9.16-4.85-16.35-14.54-16.36-32.65,0-65.31,0-98-.07a52.22,52.22,0,0,1-12.11-1.25c-22.73-5.46-36.62-23.79-36.63-48.17q0-119,0-238a55.6,55.6,0,0,1,.92-11C48.31,43.89,67,28.67,90.71,28.65c33.55,0,67.1,0,100.64,0,8.29,0,14.42-5.86,14.53-13.59.11-7.91-6.07-13.87-14.57-13.87-34.18,0-68.37-.25-102.55.18a74.47,74.47,0,0,0-23.17,4C34.33,16.14,15.11,43.74,15.07,77.2q-.12,120,0,239.94a72.72,72.72,0,0,0,1.79,17.06c7.4,30,26.26,49,56.1,57C75.8,392,78.67,392.45,81.5,393.06ZM331.92,210.85l-52.76,52.74a40.82,40.82,0,0,0-3.63,3.93,13.66,13.66,0,0,0,6.84,21.39c6.3,2,11.08-.59,15.42-4.94q37.56-37.65,75.19-75.23c8.15-8.15,8.17-15.23,0-23.35q-37.62-37.59-75.27-75.17a27.85,27.85,0,0,0-4-3.53A13.76,13.76,0,0,0,272.23,119c.26,4.33,2.72,7.53,5.69,10.48q25.21,25.13,50.34,50.31c.94.94,1.81,2,3.24,3.52H113.89c-1.53,0-3.07-.07-4.59.06a13.7,13.7,0,0,0-12.47,13.2c-.2,8.48,6,14.24,15.32,14.24H331.92Z" transform="translate(-0.36 -0.42)"/><path d="M81.5,393.06c-2.83-.61-5.7-1.11-8.49-1.86-29.84-8-48.7-27-56.1-57a72.72,72.72,0,0,1-1.79-17.06q-.16-120,0-239.94c0-33.46,19.26-61.06,50.52-71.9a74.47,74.47,0,0,1,23.17-4c34.18-.43,68.37-.21,102.55-.18,8.5,0,14.68,6,14.57,13.87-.11,7.73-6.24,13.58-14.53,13.59-33.54.05-67.09,0-100.64,0C67,28.67,48.31,43.89,43.62,67a55.6,55.6,0,0,0-.92,11q-.08,119,0,238c0,24.38,13.9,42.71,36.63,48.17a52.22,52.22,0,0,0,12.11,1.25c32.65.1,65.31,0,98,.07,9.69,0,16,7.2,14.54,16.36-.93,5.78-5.16,8.7-9.89,11.14Z" transform="translate(-0.36 -0.42)"/><path d="M331.92,210.85H112.15c-9.37,0-15.52-5.76-15.32-14.24a13.7,13.7,0,0,1,12.47-13.2c1.52-.13,3.06-.06,4.59-.06H331.5c-1.43-1.56-2.3-2.58-3.24-3.52q-25.15-25.17-50.34-50.31c-3-3-5.43-6.15-5.69-10.48a13.76,13.76,0,0,1,21.52-12.33,27.85,27.85,0,0,1,4,3.53Q335.4,147.8,373,185.39c8.13,8.12,8.11,15.2,0,23.35Q335.39,246.36,297.79,284c-4.34,4.35-9.12,6.92-15.42,4.94a13.66,13.66,0,0,1-6.84-21.39,40.82,40.82,0,0,1,3.63-3.93Z" transform="translate(-0.36 -0.42)"/></g></g></svg>