<svg xmlns="http://www.w3.org/2000/svg" viewBox="0 0 511.95 512"><defs><style>.cls-1{fill:#fff;}</style></defs><title>termos</title><g id="Layer_2" data-name="Layer 2"><g id="Layer_1-2" data-name="Layer 1"><path d="M390,513H366a21.19,21.19,0,0,0-3.33-.93c-29.93-3.68-55.15-16.66-75.66-38.65a12.13,12.13,0,0,0-9.92-4.21q-101.94.17-203.89.05C38.37,469.22,12,442.65,12,407.82Q12,234.4,12.06,61c0-19.79,8.53-35.53,23.9-47.76C44.23,6.66,54,3.6,64,1H343c.42.25.82.67,1.27.74,26.92,3.79,51.4,29,50.94,63.79C394.37,130,395,194.44,395,258.89v5.76c67.23,9.92,113.42,69.92,106.94,134-5.3,52.45-33.6,88.11-82.53,107.13C410.06,509.39,399.82,510.65,390,513ZM364.69,264.05a22.64,22.64,0,0,0,.26-2.32c0-66.66.11-133.31-.06-200C364.84,43.81,351.32,31,333.05,31q-129.46-.09-259,0C55.09,31,42,44.07,42,63q-.06,172,0,344c0,19.39,12.89,32.1,32.35,32.11q92,0,184,0c1.71,0,3.43-.15,5.4-.25-15.61-39-14.43-76.8,6.48-112.84S323.48,269.8,364.69,264.05ZM472.3,388.37a94.37,94.37,0,1,0-188.73-.05c-.2,52.16,42.36,94.77,94.58,94.69C430,482.93,472.25,440.5,472.3,388.37Z" transform="translate(-1 -1)"/><path class="cls-1" d="M390,513c9.82-2.35,20.06-3.61,29.38-7.24,48.93-19,77.23-54.68,82.53-107.13,6.48-64.06-39.71-124.06-106.94-134v-5.76c0-64.45-.6-128.91.24-193.36.46-34.78-24-60-50.94-63.79-.45-.07-.85-.49-1.27-.74H513V513Z" transform="translate(-1 -1)"/><path class="cls-1" d="M64,1C54,3.6,44.23,6.66,36,13.24,20.59,25.47,12.07,41.21,12.06,61q-.12,173.4,0,346.82c0,34.83,26.35,61.4,61.18,61.44q101.94.14,203.89-.05a12.13,12.13,0,0,1,9.92,4.21c20.51,22,45.73,35,75.66,38.65A21.19,21.19,0,0,1,366,513H1V1Z" transform="translate(-1 -1)"/><path class="cls-1" d="M364.69,264.05c-41.21,5.75-73.5,25.79-94.49,61.95s-22.09,73.82-6.48,112.84c-2,.1-3.69.25-5.4.25q-92,0-184,0C54.89,439.09,42,426.38,42,407Q42,235,42,63c0-19,13.09-32,32.1-32q129.48-.06,259,0c18.27,0,31.79,12.8,31.84,30.75.17,66.66.07,133.31.06,200A22.64,22.64,0,0,1,364.69,264.05ZM133.51,99.6c-14.81,0-29.62-.15-44.42.05-9,.12-15.3,6.54-15.29,15s6.37,14.71,15.31,15.17c.5,0,1,0,1.5,0q42.92,0,85.85,0c8.81,0,15.16-4.82,16.51-12.22,1.8-9.85-5-17.87-15.54-18C162.79,99.46,148.15,99.59,133.51,99.6Zm139.87,0c-14.65,0-29.29-.11-43.93,0-9.32.09-15.85,6.51-15.81,15.07s6.64,14.89,15.89,15.13c5.16.13,10.32,0,15.48,0,23.79,0,47.58,0,71.37,0,9.83,0,16.52-6,16.73-14.73.21-9-6.19-15.39-15.81-15.49C302.66,99.48,288,99.59,273.38,99.59ZM134,159.6c-15,0-29.95-.14-44.92.05-8.85.11-15.08,6.27-15.31,14.49-.23,8.48,5.94,15.52,14.77,15.59q44.91.35,89.84,0a14.78,14.78,0,0,0,14.82-15.56c-.24-8.43-6.57-14.46-15.77-14.55C163,159.48,148.52,159.59,134,159.6Zm139.66,0c-14.31,0-28.62-.12-42.93.1a22.59,22.59,0,0,0-9.56,2.08c-6.17,3.09-8.88,10.42-7,17.07s7.95,11,16,11q42.93.09,85.85,0c10.38,0,17.15-6.21,17.06-15.4-.09-9-6.69-14.81-17-14.84C302,159.54,287.84,159.58,273.7,159.58ZM134,219.6c-15,0-29.95-.15-44.92.05-9,.12-15.31,6.53-15.31,15a14.76,14.76,0,0,0,14.78,15.09q44.93.33,89.85,0a14.78,14.78,0,0,0,14.81-15.56c-.24-8.42-6.58-14.45-15.78-14.55C163,219.48,148.51,219.59,134,219.6Zm-.53,60c-14.81,0-29.62-.16-44.43.06-9,.13-15.28,6.55-15.27,15a14.8,14.8,0,0,0,14.82,15.06q44.92.31,89.84,0c9-.07,15.27-7.42,14.75-16.09-.49-8.18-6.75-13.93-15.79-14C162.78,279.48,148.14,279.59,133.5,279.6Zm-.05,61h0c-14.81,0-29.62-.17-44.42.06-9,.14-15.26,6.62-15.23,15.09a14.81,14.81,0,0,0,14.87,15q44.91.28,89.84,0c9-.07,15.24-7.46,14.69-16.13-.52-8.34-6.88-13.92-16.32-14C162.4,340.51,147.93,340.59,133.45,340.59Zm116.47-90.74c7,0,14,.12,21,0,9.14-.18,15.94-6.7,16-15.1s-6.54-15-15.86-15.09q-20.71-.24-41.45,0c-9.39.09-15.92,6.4-15.94,15,0,8.74,6.71,15.1,16.3,15.24C236.6,249.93,243.26,249.85,249.92,249.85Z" transform="translate(-1 -1)"/><path class="cls-1" d="M472.3,388.37C472.25,440.5,430,482.93,378.15,483c-52.22.08-94.78-42.53-94.58-94.69a94.37,94.37,0,1,1,188.73.05Zm-103.15,8.95c-8.24-6-15.85-11.61-23.62-17-7.29-5.09-16.3-3.66-21.27,3.12s-3.55,15.94,3.56,21.2q17.25,12.78,34.75,25.19c7.64,5.42,15.7,4.18,21.66-3.08,5-6.05,9.81-12.18,14.7-18.28,10.72-13.37,21.52-26.68,32.12-40.15,5.45-6.94,4.32-16.22-2.21-21.38a15.21,15.21,0,0,0-21,2.29c-1.64,1.88-3.15,3.88-4.71,5.82Z" transform="translate(-1 -1)"/><path d="M133.51,99.59c14.64,0,29.28-.13,43.92,0,10.57.12,17.34,8.14,15.54,18-1.35,7.4-7.7,12.2-16.51,12.22q-42.93.07-85.85,0c-.5,0-1,0-1.5,0-8.94-.46-15.29-6.76-15.31-15.17s6.25-14.9,15.29-15C103.89,99.45,118.7,99.6,133.51,99.59Z" transform="translate(-1 -1)"/><path d="M273.38,99.59c14.64,0,29.28-.11,43.92,0,9.62.1,16,6.54,15.81,15.49-.21,8.71-6.9,14.7-16.73,14.73-23.79.06-47.58,0-71.37,0-5.16,0-10.32.1-15.48,0-9.25-.24-15.84-6.58-15.89-15.13s6.49-15,15.81-15.07C244.09,99.48,258.73,99.59,273.38,99.59Z" transform="translate(-1 -1)"/><path d="M134,159.59c14.48,0,29-.11,43.43,0,9.2.09,15.53,6.12,15.77,14.55a14.78,14.78,0,0,1-14.82,15.56q-44.92.33-89.84,0c-8.83-.07-15-7.11-14.77-15.59.23-8.22,6.46-14.38,15.31-14.49C104.09,159.46,119.07,159.6,134,159.59Z" transform="translate(-1 -1)"/><path d="M273.7,159.58c14.14,0,28.28,0,42.42,0,10.31,0,16.91,5.86,17,14.84.09,9.19-6.68,15.39-17.06,15.4q-42.93.06-85.85,0c-8.07,0-14.15-4.31-16-11s.85-14,7-17.07a22.59,22.59,0,0,1,9.56-2.08C245.08,159.46,259.39,159.58,273.7,159.58Z" transform="translate(-1 -1)"/><path d="M134,219.59c14.48,0,28.95-.11,43.43,0,9.2.1,15.54,6.13,15.78,14.55a14.78,14.78,0,0,1-14.81,15.56q-44.93.33-89.85,0A14.76,14.76,0,0,1,73.8,234.65c0-8.47,6.27-14.88,15.31-15C104.08,219.45,119.06,219.6,134,219.59Z" transform="translate(-1 -1)"/><path d="M133.5,279.59c14.64,0,29.28-.11,43.92,0,9,.09,15.3,5.84,15.79,14,.52,8.67-5.74,16-14.75,16.09q-44.91.35-89.84,0A14.8,14.8,0,0,1,73.8,294.69c0-8.48,6.23-14.9,15.27-15C103.88,279.44,118.69,279.6,133.5,279.59Z" transform="translate(-1 -1)"/><path d="M133.45,340.59c14.48,0,29-.08,43.43,0,9.44.08,15.8,5.66,16.32,14,.55,8.67-5.7,16.06-14.69,16.13q-44.92.36-89.84,0a14.81,14.81,0,0,1-14.87-15c0-8.47,6.2-14.95,15.23-15.09,14.8-.23,29.61-.06,44.42-.06Z" transform="translate(-1 -1)"/><path d="M249.92,249.85c-6.66,0-13.32.08-20,0-9.59-.14-16.33-6.5-16.3-15.24,0-8.57,6.55-14.88,15.94-15q20.71-.23,41.45,0c9.32.11,15.91,6.58,15.86,15.09s-6.85,14.92-16,15.1C263.91,250,256.91,249.85,249.92,249.85Z" transform="translate(-1 -1)"/><path d="M369.15,397.32,403.09,355c1.56-1.94,3.07-3.94,4.71-5.82a15.21,15.21,0,0,1,21-2.29c6.53,5.16,7.66,14.44,2.21,21.38-10.6,13.47-21.4,26.78-32.12,40.15-4.89,6.1-9.74,12.23-14.7,18.28-6,7.26-14,8.5-21.66,3.08q-17.51-12.41-34.75-25.19c-7.11-5.26-8.51-14.44-3.56-21.2s14-8.21,21.27-3.12C353.3,385.71,360.91,391.36,369.15,397.32Z" transform="translate(-1 -1)"/></g></g></svg>