<?xml version="1.0" standalone="no"?>
<!DOCTYPE svg PUBLIC "-//W3C//DTD SVG 20010904//EN"
 "http://www.w3.org/TR/2001/REC-SVG-20010904/DTD/svg10.dtd">
<svg version="1.0" xmlns="http://www.w3.org/2000/svg"
 width="512.000000pt" height="512.000000pt" viewBox="0 0 512.000000 512.000000"
 preserveAspectRatio="xMidYMid meet">

<g transform="translate(0.000000,512.000000) scale(0.100000,-0.100000)"
fill="#000000" stroke="none">
<path d="M2430 4496 l-355 -353 -585 -167 c-444 -127 -589 -172 -603 -188 -16
-19 -17 -74 -17 -843 l0 -823 -32 -13 c-18 -7 -72 -39 -119 -71 -353 -236
-510 -685 -382 -1092 98 -311 337 -544 660 -643 81 -25 101 -27 263 -27 162 0
182 2 263 27 243 75 453 236 567 435 l35 61 1328 1 1328 0 24 25 25 24 0 1451
c0 1547 2 1496 -45 1514 -9 3 -169 6 -356 6 l-339 0 0 475 0 476 -25 24 c-14
15 -36 25 -53 25 -16 0 -207 -63 -423 -140 -217 -77 -400 -139 -406 -138 -7 2
-85 72 -172 156 -140 133 -164 152 -192 152 -30 0 -66 -32 -389 -354z m820
-256 l425 -419 -850 -1 -850 0 420 420 c231 231 422 420 425 420 3 -1 196
-190 430 -420z m680 -15 c0 -351 -2 -405 -15 -405 -20 0 -608 581 -598 591 6
5 591 215 611 219 1 0 2 -182 2 -405z m-2130 -360 l-44 -45 -111 1 -110 0 145
44 c80 24 149 44 155 44 5 1 -11 -19 -35 -44z m2870 -545 l0 -340 -289 0
c-328 0 -402 -9 -516 -64 -178 -85 -301 -224 -362 -411 -22 -68 -26 -97 -26
-200 0 -103 4 -132 26 -200 61 -187 185 -327 362 -411 118 -55 187 -64 515
-64 l290 0 0 -335 0 -335 -1241 0 c-1178 0 -1241 1 -1234 17 22 55 37 196 32
303 -6 146 -34 255 -97 385 -162 332 -504 545 -873 545 -58 0 -170 -14 -209
-26 -17 -5 -18 35 -18 735 l0 741 1820 0 1820 0 0 -340z m0 -1015 l0 -515
-287 0 c-219 0 -303 4 -351 15 -205 48 -361 218 -393 427 -40 255 134 511 389
572 41 11 137 15 350 15 l292 1 0 -515z m-3290 -265 c316 -50 573 -277 662
-586 19 -67 23 -101 22 -224 0 -137 -2 -150 -33 -240 -41 -122 -96 -214 -179
-302 -164 -174 -357 -258 -592 -258 -233 0 -425 83 -586 252 -148 156 -224
345 -224 559 0 489 449 874 930 799z"/>
<path d="M3991 2579 c-92 -18 -176 -91 -206 -178 -21 -61 -19 -156 4 -207 98
-215 389 -229 505 -24 28 49 31 64 31 135 0 63 -5 89 -23 122 -61 116 -186
177 -311 152z m122 -171 c47 -24 70 -107 44 -158 -16 -32 -73 -70 -104 -70
-68 0 -123 57 -123 128 0 90 99 144 183 100z"/>
<path d="M1195 1855 c-20 -19 -25 -34 -25 -73 0 -46 -1 -48 -37 -61 -50 -18
-120 -85 -151 -146 -23 -43 -27 -62 -27 -135 1 -100 22 -154 88 -219 54 -54
108 -79 194 -90 85 -11 124 -31 152 -81 56 -100 -14 -220 -128 -220 -82 0
-133 46 -150 135 -9 50 -46 95 -76 95 -26 0 -63 -22 -75 -46 -17 -31 -7 -114
22 -172 27 -58 92 -122 147 -146 40 -19 41 -20 41 -68 0 -60 31 -98 80 -98 49
0 80 38 80 98 0 46 2 50 28 55 46 10 122 68 157 121 83 125 71 273 -31 386
-47 52 -122 87 -213 99 -83 11 -115 29 -142 81 -39 71 -10 164 61 200 49 25
90 25 139 1 48 -25 69 -57 81 -124 16 -86 82 -116 137 -61 23 23 25 31 20 83
-9 109 -90 218 -190 256 -46 17 -47 18 -47 62 0 55 -33 93 -80 93 -19 0 -40
-9 -55 -25z"/>
</g>
</svg>
