<svg width="284" height="130" viewBox="0 0 284 130" fill="none" xmlns="http://www.w3.org/2000/svg">
<g filter="url(#filter0_d_1278_872)">
<g clip-path="url(#clip0_1278_872)">
<path d="M8.28325 1.39941H79.0362C81.3999 1.39941 83.3115 3.3156 83.3115 5.685V22.2151C83.3115 23.1136 83.0339 23.9882 82.5104 24.7197C68.6374 44.0565 54.7645 63.3933 40.8915 82.7301C38.2343 86.4353 32.317 83.9466 33.2054 79.4702C33.2134 79.4145 33.2292 79.3589 33.2372 79.3032C34.4825 73.6421 22.6163 105.414 55.756 104.564H58.2466C59.4126 104.564 60.3882 103.673 60.4913 102.504L61.1497 94.9905C61.1497 94.9905 57.6834 94.3783 55.1055 92.8915C52.9005 91.6193 52.2738 88.7172 53.773 86.6499C61.0466 76.5999 68.3122 66.5419 75.5858 56.4918C78.013 53.1365 83.3195 54.8619 83.3195 59.0123V116.371C83.3195 118.74 81.4079 120.656 79.0441 120.656H8.28325C5.91953 120.656 4.00793 118.74 4.00793 116.371V98.966C4.00793 98.0755 4.28555 97.2009 4.80113 96.4773C6.66513 93.8615 9.28268 90.1961 12.4158 85.8389C18.801 76.9656 19.3087 76.3295 24.0361 69.7382C30.1437 61.2147 31.1193 59.7199 36.4496 52.3255C38.8768 48.9622 40.9867 46.076 42.6206 43.8418C43.4535 42.7048 44.794 42.0846 46.2059 42.1085C50.6002 42.188 54.7645 39.8902 57.152 35.9306C60.4199 30.508 58.7384 24.6402 58.0879 22.8432C57.9928 22.5809 57.6596 22.4934 57.4455 22.6763C54.6375 25.0695 39.2099 37.5764 47.5226 15.7669C43.1679 15.0274 38.7737 16.9038 36.1006 20.6647C33.6575 24.0915 32.9754 28.6236 34.1969 32.7104C34.5618 33.9428 34.2842 35.2706 33.5386 36.3122C26.2729 46.4497 19.0152 56.5872 11.7495 66.7168C9.33027 70.1039 4 68.3865 4 64.2202L4.00793 5.685C4.00793 3.3156 5.91953 1.39941 8.28325 1.39941Z" fill="white"/>
<path d="M140.088 120.855H104.125C102.277 120.855 100.786 119.352 100.786 117.507V6.06612C100.786 4.21354 102.285 2.71875 104.125 2.71875H139.351C141.199 2.71875 142.69 4.22149 142.69 6.06612V12.8086C142.69 14.6611 141.191 16.1559 139.351 16.1559H119.854C118.006 16.1559 116.515 17.6587 116.515 19.5033V50.2657C116.515 52.1183 118.014 53.613 119.854 53.613H137.407C139.256 53.613 140.747 55.1158 140.747 56.9604V63.7029C140.747 65.5554 139.248 67.0502 137.407 67.0502H119.854C118.006 67.0502 116.515 68.553 116.515 70.3976V104.404C116.515 106.257 118.014 107.751 119.854 107.751H140.088C141.937 107.751 143.428 109.254 143.428 111.099V117.475C143.428 119.36 141.929 120.855 140.088 120.855Z" fill="white" stroke="white" stroke-miterlimit="10"/>
<path d="M200.958 120.855H164.995C163.146 120.855 161.655 119.352 161.655 117.507V6.06612C161.655 4.21354 163.154 2.71875 164.995 2.71875H174.219C176.068 2.71875 177.559 4.22149 177.559 6.06612V104.245C177.559 106.098 179.058 107.592 180.898 107.592H200.95C202.798 107.592 204.289 109.095 204.289 110.94V117.499C204.297 119.36 202.806 120.855 200.958 120.855Z" fill="white" stroke="white" stroke-miterlimit="10"/>
<path d="M214.387 61.4611C214.387 35.8271 216.902 19.2413 221.93 11.7038C226.959 4.16623 235.232 0.397461 246.765 0.397461C259.964 0.397461 268.737 4.61149 273.084 13.0475C277.43 21.4835 279.604 36.6619 279.604 58.5908C279.604 78.2377 278.636 91.8577 276.693 99.4589C274.749 107.06 271.386 112.65 266.611 116.227C261.828 119.813 255.34 121.602 247.138 121.602C238.691 121.602 232.21 119.949 227.713 116.649C223.208 113.341 219.86 107.982 217.679 100.572C215.482 93.1537 214.387 80.122 214.387 61.4611ZM262.955 62.3913C262.955 39.9695 261.638 26.1189 259.012 20.8395C256.379 15.56 252.437 12.9203 247.186 12.9203C240.999 12.9203 236.763 16.0848 234.479 22.4138C232.187 28.7427 231.044 39.413 231.044 54.4244V60.9125C231.044 77.6493 231.972 89.862 233.828 97.5506C235.684 105.239 240.134 109.088 247.186 109.088C251.517 109.088 255.229 106.925 258.322 102.607C261.416 98.2821 262.962 86.3318 262.962 66.7564V62.3913H262.955Z" fill="white" stroke="white" stroke-miterlimit="10"/>
</g>
</g>
<defs>
<filter id="filter0_d_1278_872" x="0" y="0" width="284" height="130" filterUnits="userSpaceOnUse" color-interpolation-filters="sRGB">
<feFlood flood-opacity="0" result="BackgroundImageFix"/>
<feColorMatrix in="SourceAlpha" type="matrix" values="0 0 0 0 0 0 0 0 0 0 0 0 0 0 0 0 0 0 127 0" result="hardAlpha"/>
<feOffset dy="4"/>
<feGaussianBlur stdDeviation="2"/>
<feComposite in2="hardAlpha" operator="out"/>
<feColorMatrix type="matrix" values="0 0 0 0 0 0 0 0 0 0 0 0 0 0 0 0 0 0 0.25 0"/>
<feBlend mode="normal" in2="BackgroundImageFix" result="effect1_dropShadow_1278_872"/>
<feBlend mode="normal" in="SourceGraphic" in2="effect1_dropShadow_1278_872" result="shape"/>
</filter>
<clipPath id="clip0_1278_872">
<rect width="276" height="122" fill="white" transform="translate(4)"/>
</clipPath>
</defs>
</svg>
