<?xml version="1.0" encoding="utf-8"?>
<!-- Generator: Adobe Illustrator 23.0.6, SVG Export Plug-In . SVG Version: 6.00 Build 0)  -->
<svg version="1.1" id="Layer_1" xmlns="http://www.w3.org/2000/svg" xmlns:xlink="http://www.w3.org/1999/xlink" x="0px" y="0px"
	 viewBox="0 0 276 122" style="enable-background:new 0 0 276 122;" xml:space="preserve">
<style type="text/css">
	.st0{fill:#FFFFFF;}
	.st1{fill:#FFFFFF;stroke:#FFFFFF;stroke-miterlimit:10;}
</style>
<path class="st0" d="M4.69,1.12h70.86c2.37,0,4.28,1.93,4.28,4.32v16.64c0,0.9-0.28,1.79-0.81,2.52
	c-13.89,19.47-27.79,38.93-41.68,58.4c-2.66,3.73-8.59,1.23-7.7-3.28c0.01-0.06,0.02-0.11,0.04-0.17
	c1.25-5.69-10.63,26.28,22.55,25.43l2.49,0c1.17,0,2.15-0.9,2.25-2.07l0.66-7.56c0,0-3.47-0.61-6.06-2.11
	c-2.21-1.28-2.83-4.2-1.34-6.28C57.52,76.82,64.8,66.7,72.08,56.58c2.44-3.39,7.75-1.65,7.75,2.53v57.74c0,2.38-1.92,4.32-4.28,4.32
	H4.69c-2.37,0-4.28-1.93-4.28-4.32l0-17.52c0-0.9,0.28-1.78,0.8-2.51c1.87-2.63,4.49-6.32,7.63-10.71
	c6.39-8.93,6.9-9.57,11.63-16.21c6.12-8.58,7.09-10.09,12.44-17.53c2.43-3.38,4.54-6.29,6.18-8.54c0.84-1.15,2.18-1.77,3.59-1.74
	c4.4,0.08,8.57-2.24,10.96-6.22c3.27-5.46,1.59-11.37,0.94-13.18c-0.1-0.27-0.43-0.35-0.64-0.17c-2.81,2.41-18.26,15-9.94-6.95
	c-4.36-0.74-8.76,1.15-11.44,4.93c-2.45,3.45-3.13,8.01-1.91,12.13c0.37,1.24,0.09,2.58-0.66,3.63c-7.27,10.2-14.54,20.4-21.81,30.6
	c-2.43,3.41-7.76,1.68-7.76-2.52L0.41,5.44C0.41,3.05,2.33,1.12,4.69,1.12z"/>
<path class="st1" d="M136.68,121.37h-36.01c-1.85,0-3.35-1.51-3.35-3.37V5.82c0-1.86,1.5-3.37,3.35-3.37h35.27
	c1.85,0,3.35,1.51,3.35,3.37v6.79c0,1.86-1.5,3.37-3.35,3.37h-19.52c-1.85,0-3.35,1.51-3.35,3.37v30.97c0,1.86,1.5,3.37,3.35,3.37
	H134c1.85,0,3.35,1.51,3.35,3.37v6.79c0,1.86-1.5,3.37-3.35,3.37h-17.58c-1.85,0-3.35,1.51-3.35,3.37v34.23
	c0,1.86,1.5,3.37,3.35,3.37h20.27c1.85,0,3.35,1.51,3.35,3.37v6.42C140.03,119.86,138.53,121.37,136.68,121.37z"/>
<path class="st1" d="M197.64,121.37h-36.01c-1.85,0-3.35-1.51-3.35-3.37V5.82c0-1.86,1.5-3.37,3.35-3.37h9.24
	c1.85,0,3.35,1.51,3.35,3.37v98.83c0,1.86,1.5,3.37,3.35,3.37h20.08c1.85,0,3.35,1.51,3.35,3.37v6.6
	C200.99,119.86,199.49,121.37,197.64,121.37z"/>
<path class="st1" d="M211.09,61.58c0-25.81,2.52-42.5,7.55-50.09c5.03-7.59,13.32-11.38,24.87-11.38c13.22,0,22,4.24,26.36,12.73
	c4.35,8.49,6.53,23.77,6.53,45.84c0,19.77-0.97,33.49-2.92,41.13c-1.95,7.65-5.31,13.28-10.1,16.88c-4.79,3.61-11.29,5.41-19.5,5.41
	c-8.46,0-14.95-1.66-19.46-4.99c-4.51-3.33-7.86-8.72-10.05-16.18C212.18,93.48,211.09,80.36,211.09,61.58z M259.73,62.51
	c0-22.57-1.32-36.51-3.95-41.82c-2.63-5.31-6.58-7.97-11.85-7.97c-6.19,0-10.44,3.19-12.73,9.56c-2.29,6.37-3.44,17.11-3.44,32.22
	v6.53c0,16.85,0.93,29.14,2.79,36.88c1.86,7.74,6.32,11.61,13.38,11.61c4.34,0,8.05-2.17,11.15-6.53c3.1-4.35,4.65-16.38,4.65-36.09
	V62.51z"/>
</svg>
