<?xml version="1.0" encoding="UTF-8"?>
<svg id="Camada_2" xmlns="http://www.w3.org/2000/svg" viewBox="0 0 291.22 268.25">
  <defs>
    <style>
      .cls-1 {
        fill: #cb2316;
      }
    </style>
  </defs>
  <g id="Camada_1-2" data-name="Camada_1">
    <path class="cls-1" d="M283.05,268.24c-1.42-.4-4.02-.98-6.52-1.86-35.68-12.51-71.33-25.09-107.01-37.58-15.81-5.54-31.74-5.57-47.53-.05-35.06,12.25-70.05,24.69-105.1,36.95-3.41,1.19-7.04,2.19-10.62,2.41-4.64.29-6.9-2.36-6.12-6.91.5-2.89,1.66-5.76,3.04-8.37C46.21,171.6,89.28,90.4,132.35,9.2c.7-1.32,1.45-2.64,2.33-3.84,5.08-6.91,12.48-7.29,17.36-.25,4.25,6.13,7.62,12.88,11.21,19.46,41.34,75.72,82.65,151.46,123.93,227.21,1.5,2.76,2.97,5.66,3.72,8.68,1.29,5.19-1.29,7.98-7.85,7.78Z"/>
  </g>
</svg>