<svg version="1.2" xmlns="http://www.w3.org/2000/svg" viewBox="0 0 512 512" width="512" height="512"><style>.a{fill:#fff}</style><path class="a" d="m255.8 20c-6.9 1.7-16.1 7.2-21.4 12.6-17.3 17.7-17.1 45.8 0.3 63.3 17.7 17.6 45.1 17.8 63.3 0.5 16.3-15.6 18.6-41.3 5.3-58.8-5.2-6.9-13-13-20-15.6-6.5-2.6-21.1-3.6-27.5-2z"/><path class="a" d="m214 116.1c-4.3 1.7-8.9 5.8-11.4 10.2-1.5 2.5-6.6 19.7-12.8 42.7l-10.3 38.5v41c0 40.1 0 41.1 2.2 45 2.8 5.3 4.1 6.5 50.5 44.9l39.6 32.8 13.2 53.6c7.3 29.5 13.8 54.8 14.5 56.2 3.6 6.9 12.2 12 20.2 12 11.7-0.1 22.3-10.5 22.3-22 0-3.4-28.9-119.9-30.5-123.1-1.8-3.3-5.9-7-32.7-29.2l-22.8-18.8v-34.4-34.4l-22.1-26.7c-12.2-14.7-23-28.2-24.1-30.1-1.2-2-2.2-6-2.5-9.6-1.7-20.4 21-34.3 38.4-23.6 1.9 1.2 8.2 7.8 14 14.8 5.8 6.9 10.9 12.7 11.2 12.9 0.4 0.1 1.8-3.4 3-7.8 1.7-5.8 2.2-9.2 1.7-12.3-2-12.6-19.4-26.4-40.2-31.7-8.2-2.1-17.3-2.5-21.4-0.9z"/><path class="a" d="m162.4 151c-23.6 16.8-32.8 23.9-34.5 26.7l-2.4 3.8v51c0 49.8 0.1 51.1 2.1 55 3.9 7.5 13.3 11.7 21.4 9.6 6-1.6 10.3-5.1 12.9-10.4 2-4.2 2.1-5.7 2.1-46.8v-42.4l7.2-5c3.9-2.7 7.5-5.9 8-7 0.7-1.6 15.7-57.5 15.4-57.5-0.1 0-14.6 10.3-32.2 23z"/><path class="a" d="m226.5 144.2c-11.2 4.1-16.4 15.9-11.6 26.3 2.4 5.3 51 63.5 54.8 65.7 1.6 0.9 24 6.7 49.8 12.8 51.4 12.3 52 12.3 59.2 7.1 9-6.5 10.7-19.8 3.7-28.1-3.9-4.6-6.6-5.6-28.7-10.9-11.1-2.7-29.9-7.2-41.8-10l-21.7-5.2-22.2-26.7c-13.2-15.9-23.7-27.6-25.9-28.9-4.5-2.7-11.5-3.7-15.6-2.1z"/><path class="a" d="m161 387.7c-19.3 54.3-27.4 78.4-27.7 82.3-1.3 15.7 16.2 27.7 30.9 21.2 9.1-4 9-3.7 36-79.3 13.6-38.2 24.8-69.9 24.8-70.6 0-1.1-32.8-28.9-35.3-29.9-0.9-0.3-9.7 23-28.7 76.3z"/></svg>