<svg version="1.2" xmlns="http://www.w3.org/2000/svg" viewBox="0 0 512 512" width="512" height="512"><style>.a{fill:#fff}</style><path fill-rule="evenodd" class="a" d="m386.4 112.7l4.2 4.7c4.4 4.8 6.9 12.2 5.9 17.2-0.3 1.3-0.7 3.5-1 4.9-0.4 1.9 1.7 5.2 11.3 17.2 17.5 21.9 32.7 42.3 35.2 47 1.3 2.6 1.9 5 1.5 6.3-0.8 2.4-6.7 6.6-10.7 7.5-3.4 0.9-3.4 1.2-0.3 4.5l2.6 2.7-4.8 3.1-4.8 3.2h5.8c12 0 28 4.8 40.5 12.2 8.5 5 23.9 20.8 28.9 29.8 14.9 26.7 14.9 57.3 0 84-5.8 10.3-19.6 24.2-30.2 30.4-4.4 2.6-12.3 6.1-17.5 7.8-8.9 3-10.4 3.2-24.5 3.2-17.4 0-22.9-1.1-37-7.8-21.5-10.2-37.1-28.6-44.7-52.7-2-6.5-2.3-9.3-2.2-23.4 0-13.6 0.3-17 2.2-22.5 1.2-3.5 1.9-6.6 1.7-6.8-0.7-0.7-8.5 6.5-11.7 10.7-8.7 11.9-10 32.9-3.4 57.5 1.9 7.3 2.1 8.6 0.8 9.1-4 1.5-40.5 2.5-94.5 2.5h-59.7l-9-7c-4.9-3.9-9.4-7-9.9-7-0.6 0-2.5 2.8-4.3 6.2-4.4 8.6-21 25.2-30 30.2-27.7 15.4-58.8 15.4-85.3 0-10.6-6.2-24.4-20.1-30.2-30.4-14.9-26.7-14.9-57.3 0-84 5-9 20.4-24.8 28.9-29.8 28.4-16.7 62.8-16.2 89.7 1.2 12.9 8.3 26.8 24.8 31.7 37.6 2.4 6.4 2.6 6.5 9.1 5.1 9.6-2 9.3-1.9 9.3-5.9 0-2.9-2.3-7.6-10.3-21.2l-10.2-17.5-23.5-11.6c-21-10.4-24.2-11.7-30-12.1-16.4-1.3-38.3-14.6-61-37.1l-8.5-8.4-7.2-0.6c-9.2-0.7-12.8-2.4-12.8-5.7 0-1.9 0.9-2.9 3.8-4.4l3.8-1.8-2.7-2.9-2.8-2.9h17.1c29.4 0 51 2.5 60.8 7.1 2.3 1.1 5.7 4.1 8.1 7.3 4.5 5.8 15 14.6 22.6 18.9 2.5 1.5 8.8 4.1 14 5.8 10.3 3.5 24.4 4.8 37.4 3.4 6.7-0.7 6.9-0.8 13.9-7.4 35.6-34.1 79.9-42 121.8-21.7l8.9 4.2-0.7-3.2c-0.5-3-0.3-3.5 3.9-5.9 4.2-2.4 20.6-8.9 21.1-8.3 0.1 0.2 4.1 9.1 8.8 19.8l8.6 19.5 4.8 0.3c4.1 0.3 5.1 0 6.8-2.1 1.2-1.5 4.3-3.1 7.7-4.1 9.8-2.8 11.2-8.2 4-15.2-4.8-4.7-25.4-14.7-44.5-21.5-16.4-5.9-18.1-7.3-19.3-16.1-0.6-4.1-0.4-4.6 3-7.6 4.4-3.8 8.4-5.6 18.7-8.2 9.1-2.4 12.1-1.7 24.4 4.9 4.2 2.2 7.9 4.1 8.1 4.1 0.3 0 2.1-3.7 4.1-8.1zm-317.9 146.2c-26.9 7.7-44.2 32.6-42.2 60.5 1.1 14.4 6.9 26.9 17.3 37.1 29.3 28.9 79.1 18.4 94.4-19.9 4.5-11.1 4.6-10.7-6.2-10.1-21.3 1.3-50.2 2.4-50.6 2-0.7-0.7-4.2-20.8-3.8-21.3 0.3-0.2 13.8-3.3 30.1-6.7 16.3-3.5 30-6.6 30.3-7 1.5-1.5-5.7-12.5-12.8-19.5-8.1-8.1-16-12.7-26.5-15.5-7.8-2-22.3-1.8-30 0.4zm358.5-1.9c-16.7 0.1-30.6 6.3-42.5 19.2-9.5 10.2-14.8 24.1-14.8 38.8 0 16.3 5.5 29.3 17.2 40.9 14.9 14.9 34.5 20.4 55 15.6 25.1-6 44.1-30.1 44.1-56.2 0-10-1.5-16.4-6.2-26.2-7-14.6-21.4-26.4-37.4-30.6-3.3-0.8-10-1.5-15.4-1.5zm-244.7 67.2c-1.5 0.1-5.4 0.3-8.5 0.5-5.4 0.4-5.8 0.6-6.3 3.1-0.4 1.5-1 4.4-1.5 6.6l-0.9 3.9 5.2-0.7c2.9-0.3 9-0.6 13.6-0.6 7.9 0 8.3-0.1 6.8-1.8-0.8-0.9-2.5-3.8-3.6-6.5-1.8-4.1-2.4-4.7-4.8-4.5z"/></svg>