<?xml version="1.0" encoding="UTF-8"?>
<svg id="Camada_2" xmlns="http://www.w3.org/2000/svg" viewBox="0 0 366.18 347.05">
  <g id="Camada_1-2" data-name="Camada_1">
    <g>
      <path d="M36.66,230.64c7.68,4.46,14.98,9.25,22.75,13.09,11.62,5.75,24.09,8.98,37.08,9.32,20.41.54,40.92,1.93,60.83-4.64,11.24-3.71,21.57-9.05,30.99-16.19.79-.6,1.61-1.16,2.43-1.73.07-.05.23.03.87.14-.37,6.94-.71,13.96-1.13,20.97-1.39,23.15-2.9,46.3-4.17,69.46-.86,15.59-11.06,25.79-26.68,25.84-30.32.1-60.64.09-90.95,0-14.94-.04-25.08-9.01-26.48-23.95-1.29-13.78-1.81-27.62-2.64-41.44-.98-16.18-1.93-32.37-2.88-48.55-.05-.86,0-1.73,0-2.34Z"/>
      <path d="M195.15,166.09c0,2.61.12,5.08-.02,7.53-.75,13.44-1.48,26.89-2.47,40.31-.14,1.87-1.18,4.13-2.55,5.4-17.36,15.97-37.8,24.84-61.48,25.26-13.07.24-26.25.41-39.21-.94-20.07-2.1-37.26-11.21-51.98-24.95-.76-.71-1.58-1.78-1.64-2.72-1.07-16.53-2.02-33.06-3.01-49.89h162.36Z"/>
      <path d="M311.93,346.78h-16.75c0-4.96,0-9.91,0-14.86,0-2.74.02-5.49,0-8.23-.04-4.21-1.44-6.26-4.23-6.28-2.82-.02-4.31,2.07-4.32,6.19-.02,7.6,0,15.21,0,23.1h-15.46c.77-6.96,1.53-13.84,2.29-20.72.14-1.24.34-2.48.37-3.72.06-2.45-1.07-4.14-3.57-4.45-2.64-.33-4.37.93-4.72,3.62-.78,5.93-1.45,11.88-2.18,17.82-.3,2.45-.62,4.91-.95,7.53h-17.74c1.35-6.66,2.68-13.19,4-19.72.17-.85.37-1.7.52-2.56.66-3.77-.39-6.08-3.15-6.41-3.35-.4-4.58,1.74-5.16,4.63-1.17,5.86-2.45,11.71-3.64,17.57-1.36,6.7-1.34,6.7-8.05,6.7-2.87,0-5.74.06-8.61-.02-3.82-.11-5.43-2.03-4.28-5.54,3.32-10.05,6.78-20.05,10.34-30.02.3-.83,1.69-1.61,2.67-1.77,1.83-.28,3.73-.08,5.6-.08,38.68,0,77.37.04,116.05-.08,3.16,0,4.5.95,5.44,3.94,2.8,8.91,5.98,17.69,8.98,26.54,1.83,5.38.62,7.01-5.17,7.03-3.62.01-7.25-.14-10.85.05-2.53.14-3.4-.8-3.84-3.26-1.23-6.86-2.8-13.67-4.24-20.49-.84-4-2.8-5.96-5.42-5.16-3.66,1.11-3.57,3.87-2.91,6.96,1.55,7.16,2.98,14.35,4.54,21.9-5.22,0-10.07.12-14.91-.12-.8-.04-2.06-1.59-2.19-2.56-.94-6.79-1.64-13.61-2.41-20.43-.07-.62-.1-1.25-.21-1.86-.5-2.83-1.96-4.71-5.07-4.17-2.88.5-3.7,2.65-3.39,5.33.78,6.81,1.58,13.62,2.37,20.43.11.97.16,1.96.26,3.16Z"/>
      <path d="M284.56,33.1h13.02v196.24h-13.02V33.1Z"/>
      <path d="M201.97,143.07v13.77H26.27v-13.77h175.71Z"/>
      <path d="M353.86,300.7h-125.3c0-5.05-.32-10.02.19-14.91.16-1.52,2.43-3.04,4.04-4.09.89-.58,2.43-.2,3.67-.2,36.42,0,72.83,0,109.25,0,7.11,0,8.15,1.06,8.15,8.28,0,3.48,0,6.96,0,10.93Z"/>
      <path d="M26.75,220.24c-1.35-1.54-2.75-3.04-4.05-4.63C10.58,200.84,2.93,184.06.17,165.13c-1.46-10.03,6.91-19.25,17.3-19.08v7.8c-.47.21-.91.45-1.37.59-6.24,1.91-8.34,5.35-7.15,11.82,2.32,12.64,6.52,24.67,14.1,35.02,4.36,5.95,3.62,12.23,3.7,18.95Z"/>
      <path d="M211.03,145.94c11.64,1.03,18.39,9.16,17.08,20.06-2.15,17.96-13.52,41.19-27.03,54.52.58-6.16-.88-11.68,2.81-16.83,8.33-11.63,13.38-24.67,15.74-38.75.71-4.22-.97-8.51-4.86-9.4-4.48-1.02-4.13-3.73-3.95-6.84.05-.85.13-1.7.22-2.76Z"/>
      <path d="M297.65,272.84h-13.15v-34.28h13.15v34.28Z"/>
      <path d="M297.83,24.37h-13.44c0-6.31-.2-12.5.08-18.67.15-3.35,3.5-5.78,6.82-5.7,3.51.09,6.38,2.72,6.49,6.45.17,5.84.04,11.68.04,17.92Z"/>
    </g>
  </g>
</svg>