<?xml version="1.0" encoding="UTF-8"?>
<svg id="Camada_2" xmlns="http://www.w3.org/2000/svg" viewBox="0 0 383.08 383.37">
  <g id="Camada_1-2" data-name="Camada_1">
    <g>
      <path d="M73.36,0c7.61,2.23,15.56,3.67,22.77,6.82,27.84,12.18,43.54,43.22,37.3,73.01-.71,3.41-.25,5.63,2.37,8.1,7.08,6.65,13.81,13.66,20.9,20.75-13.26,18.56-26.4,36.96-40.07,56.11-1.77-2.01-3.15-3.76-4.71-5.33-8.26-8.32-16.62-16.54-24.82-24.92-1.69-1.73-3.15-2.07-5.55-1.56C43.3,141.23,6.06,115.18.69,76.58c-.12-.84-.46-1.65-.69-2.48,0-4.74,0-9.48,0-14.22,1.3-5.16,2.28-10.43,3.98-15.46,3.31-9.8,12.54-11.91,19.91-4.74,6.35,6.17,12.59,12.46,18.92,18.64,5.11,4.99,12.22,5.29,16.69.78,4.62-4.67,4.25-11.33-.98-16.64-6.21-6.31-12.49-12.55-18.68-18.88-7-7.16-4.91-16.52,4.58-19.74,4.79-1.63,9.81-2.59,14.72-3.85,4.74,0,9.48,0,14.22,0Z"/>
      <path d="M155.39,225.31c-10.4,0-20.48.06-30.57-.02-7.45-.06-12.93-6.03-11.58-12.84.46-2.34,1.79-4.65,3.2-6.64,15.8-22.27,31.69-44.47,47.56-66.69,20.58-28.81,41.16-57.62,61.74-86.43.58-.81,1.15-1.63,1.77-2.41,3.56-4.42,8.84-5.79,13.7-3.56,4.78,2.18,7.36,7.25,6.27,12.72-5.98,30.05-12.01,60.09-18.02,90.14-.53,2.66-1.02,5.34-1.6,8.37,10.4,0,20.49,0,30.57,0,4.63,0,8.23,1.9,10.43,6.01,2.22,4.14,1.66,8.17-.92,12-.42.62-.87,1.22-1.3,1.83-13.98,19.58-27.97,39.16-41.95,58.74-22.31,31.25-44.63,62.49-66.94,93.74-.65.91-1.3,1.83-2,2.71-3.57,4.43-8.84,5.8-13.7,3.57-4.78-2.19-7.37-7.26-6.29-12.72,5.98-30.05,12.01-60.09,18.02-90.14.53-2.66,1.02-5.34,1.6-8.38Z"/>
      <path d="M226.57,274.33c13.23-18.52,26.34-36.87,39.71-55.6,1.13,1.05,2.13,1.91,3.06,2.84,8.83,8.82,17.7,17.59,26.42,26.51,1.83,1.88,3.4,2.52,6.12,1.96,43.17-8.81,82.32,23.72,81.18,67.75-.19,7.21-2.02,14.56-4.18,21.51-2.83,9.11-12.41,10.96-19.3,4.24-6.61-6.45-13.11-13-19.72-19.45-3.43-3.35-7.58-4.29-12.08-2.71-4.11,1.45-6.48,4.58-7.1,8.87-.58,4.02,1.04,7.28,3.83,10.08,6.16,6.19,12.3,12.4,18.44,18.61,7.7,7.8,5.6,17.14-4.9,20.52-24.65,7.94-47.35,3.86-66.72-13.27-19.13-16.92-26.08-38.66-21.34-63.85.56-2.96.02-4.76-2.08-6.79-7.17-6.92-14.15-14.05-21.34-21.23Z"/>
    </g>
  </g>
</svg>