<?xml version="1.0" encoding="UTF-8"?>
<svg id="Camada_2" xmlns="http://www.w3.org/2000/svg" viewBox="0 0 360.51 383.14">
  <g id="Camada_1-2" data-name="Camada_1">
    <g>
      <path d="M309.72,383.14c-5.89-2.22-12.18-3.73-17.59-6.79-17.22-9.73-28.22-33.69-17.58-54.68,4.93-9.73,10.67-19.15,17.04-28.01,7.18-9.99,15.48-19.19,23.67-29.2,4.6,5.26,8.9,10.04,13.05,14.94,9.52,11.24,18.19,23.08,25.33,36.02,8.55,15.51,9.7,30.97.08,46.38-7.03,11.26-17.26,18.06-30.3,20.62-.84.16-1.65.47-2.48.72h-11.23Z"/>
      <path d="M101.43,168.96v-67.65c1.53,0,2.96,0,4.39,0,16.09,0,32.19-.03,48.28.04,2.26,0,3.85-.49,5.42-2.37,22.35-26.6,62.5-27.09,85.47-.98,2.23,2.54,4.39,3.46,7.63,3.36,26.46-.81,49.6,7.52,68.66,26.02,18.01,17.48,27.32,39.04,27.96,64.11.38,14.81.07,29.65.07,44.76h-67.64c0-1.37,0-2.8,0-4.22-.08-10.72.27-21.47-.34-32.17-.91-16-13.72-28.87-29.68-30.77-2.59-.31-4.29.38-6.05,2.47-22.13,26.31-62.64,26.61-85.21.61-2.12-2.44-4.17-3.29-7.29-3.27-15.72.14-31.44.06-47.16.06h-4.52Z"/>
      <path d="M78.41,56.13v157.77H22.31v22.4H0V33.87h22.19v22.26h56.23Z"/>
      <path d="M180.26,22.4V0h44.89v22.17h44.89v22.66h-44.76v14.59c-15.17-4.19-29.93-4.32-44.99.05v-14.43h-44.9v-22.64h44.86Z"/>
    </g>
  </g>
</svg>