<?xml version="1.0" encoding="UTF-8"?>
<svg id="Camada_2" xmlns="http://www.w3.org/2000/svg" viewBox="0 0 239.38 239.38">
  <g id="Camada_1-2" data-name="Camada_1">
    <path d="M196.1,211.95c-4.9,0-9.54-.08-14.18.02-6.06.13-8.18-1.95-7.97-8.04.15-4.51.29-9.01.43-13.52,0-.13-.13-.27-.12-.25-4.57,0-9.05,0-13.54,0-1.09,0-2.19.13-3.26-.01-3.29-.44-5.35-2.85-5.37-6.26-.03-5.2,0-10.4,0-15.79-2.32,0-5-.1-7.68.02-12.33.54-9.42,1.38-17.98-7.07-7.53-7.43-14.98-14.93-22.41-22.46-1.01-1.02-1.82-1.26-3.21-.73-16.27,6.24-32.67,6.49-48.92.2-18.5-7.16-31.61-20.12-38.84-38.57-7.37-18.8-6.47-37.53,2.71-55.51C25.01,25.86,39.77,14.1,59.53,9.03,94.52.06,130.57,20.43,140.97,55c4.44,14.75,3.94,29.45-1.55,43.88-.66,1.75-.52,2.81.86,4.19,28.7,28.6,57.31,57.28,86.02,85.88,2.37,2.36,3.5,4.93,3.75,8.2.62,8.13,1.45,16.25,2.19,24.38.1,1.08.18,2.17.18,3.26.01,3.3-2.06,5.84-5.37,6.25-8.02.98-16.05,1.93-24.09,2.71-4.75.46-7.42-2.35-7.26-7.18.15-4.27.27-8.55.4-12.82.02-.67,0-1.34,0-1.79ZM35.01,52.59c-.26,10.47,8.2,19.22,18.98,19.63,10.26.39,19.21-8.33,19.56-19.07.33-10.29-8.51-19.32-19.11-19.52-10.33-.19-19.17,8.43-19.43,18.95ZM126.31,120.42c.37.42.65.78.97,1.09,24.73,24.74,49.47,49.49,74.21,74.22.49.49,1.03.95,1.62,1.32,1.93,1.2,4.26.88,5.73-.72,1.41-1.54,1.62-3.8.39-5.58-.57-.82-1.28-1.56-1.99-2.27-24.46-24.47-48.93-48.92-73.37-73.41-.59-.59-.86-1.49-1.36-2.4-2.48,3.1-4.31,5.39-6.2,7.75Z"/>
  </g>
</svg>