<?xml version="1.0" encoding="UTF-8"?>
<svg id="Camada_2" xmlns="http://www.w3.org/2000/svg" viewBox="0 0 388.4 408.77">
  <g id="Camada_1-2" data-name="Camada_1">
    <g>
      <path d="M78.44,0c7.29,1.66,14.32,3.89,19.92,9.2,10.91,10.34,14.9,22.86,10.55,37.3-4.43,14.71-14.65,23.29-29.96,25.49-18.42,2.65-34.93-9.62-39.57-26.62-4.47-16.35,3.87-34.36,20.14-42.01,3.42-1.61,7.28-2.27,10.94-3.36,2.66,0,5.32,0,7.98,0Z"/>
      <path d="M61.85,141.46c2.97,14.98,5.86,29.97,8.95,44.92,2.43,11.74,12,19.7,25.94,21.89,7.09,1.11,14.16,2.33,21.27,3.29,2.45.33,3.27,1.38,3.57,3.78,3.03,23.87,6.63,47.68,9.05,71.6.74,7.29-1.27,14.99-2.77,22.35-5.65,27.59-11.57,55.13-17.48,82.66-2.15,10.03-9.64,16.48-19.09,16.79-8.97.3-17.57-5.68-19.62-14.46-.87-3.74-.8-7.99-.02-11.77,6.05-29.41,12.56-58.72,18.45-88.16,1-5.01-.06-10.52-.65-15.74-1.16-10.17-2.65-20.29-4.05-30.76h-15.42c1.06,8.78,2.09,17.56,3.18,26.33.9,7.26,2.26,14.49,2.63,21.77.22,4.52-.13,9.47-1.79,13.6-11.46,28.6-23.33,57.04-35.06,85.53-3.47,8.42-9.61,13.44-18.82,13.58-8.29.13-14.52-3.91-18.2-11.4-2.96-6.02-2.21-12.07.3-18.12,9.72-23.43,19.07-47.02,29.19-70.28,3.45-7.93,4.23-15.47,3-23.87-2.65-18.02-4.67-36.12-6.93-54.19-.15-1.18-.16-2.39-.16-3.59.2-39.25.36-78.5.65-117.75.11-15.28,8.85-25.19,23.93-25.89,14.87-.69,29.81-.65,44.68,0,14.12.62,23.21,9.6,23.83,23.51.65,14.58.15,29.22.15,45.07-9.49-10.49-18.32-20.24-27.14-29.99-.24.12-.49.24-.73.36.45,1.1.85,2.22,1.34,3.3,5.06,11.12,10.25,22.19,15.11,33.4,1.24,2.86,2.96,3.93,5.83,4.38,18.25,2.84,36.49,5.75,54.72,8.76,10.23,1.69,16.74,9.86,15.59,19.27-1.21,9.96-9.64,16.69-20.2,15.19-19.6-2.79-39.13-6.11-58.69-9.2-2.76-.44-5.51-.9-8.27-1.3-7.42-1.06-12.71-4.85-15.83-11.79-5.98-13.33-12.11-26.6-18.18-39.89-.54-1.19-1.15-2.35-1.73-3.52-.18.1-.35.2-.53.3Z"/>
      <path d="M150.39,216.98c5.28.73,9.99,2.04,14.63,1.84,5.48-.24,7.69,2.49,9.95,6.78,13.6,25.87,27.44,51.61,41.21,77.4.68,1.28,1.41,2.53,2.33,4.18,4.85-2.32,9.57-4.57,14.54-6.94-.95-1.86-1.69-3.38-2.49-4.87-14.14-26.49-28.27-52.98-42.49-79.43-1.26-2.34-1.04-3.6.69-5.78,3.39-4.27,5.99-9.17,8.87-13.72.37.64,1.19,1.97,1.92,3.34,15.58,29.18,31.2,58.34,46.65,87.6,2.03,3.84,4.55,6.06,8.76,7.6,36.67,13.4,73.21,27.13,109.79,40.76,4.35,1.62,8.67,3.35,13.06,4.87,4.63,1.6,6.56,4.8,6.93,9.6.33,4.29.94,8.66,2.18,12.78,5.42,18.04-4.66,38.02-22.31,43.7-19.22,6.18-38.91-3.39-44.98-22.01-.83-2.54-1.86-3.55-4.67-3.52-17.69.14-35.39.13-53.08,0-2.71-.02-3.83.81-4.76,3.41-4.84,13.59-14.51,21.82-28.81,23.74-14.17,1.9-25.82-3.44-33.78-15.14-7.96-11.7-7.85-24.12-1.93-37.11,3.14-6.89,4.3-14.69,6.22-22.12,1.03-3.98,1.41-8.17,2.8-12.02,1.54-4.29.64-7.69-1.44-11.55-16.03-29.7-31.85-59.5-47.73-89.28-.61-1.15-1.18-2.33-2.08-4.11ZM240.56,373.16c-.08-9.18-7.64-16.68-16.82-16.68-9.36,0-16.9,7.65-16.83,17.06.08,9.18,7.65,16.72,16.81,16.73,9.3.01,16.92-7.74,16.84-17.11ZM369.89,373.45c.04-9.37-7.64-17.06-16.94-16.97-9.23.09-16.68,7.56-16.72,16.78-.04,9.37,7.65,17.1,16.92,17.02,9.15-.08,16.7-7.66,16.73-16.82Z"/>
    </g>
  </g>
</svg>