<?xml version="1.0" encoding="UTF-8"?>
<svg id="Camada_2" xmlns="http://www.w3.org/2000/svg" viewBox="0 0 383.09 310.02">
  <g id="Camada_1-2" data-name="Camada_1">
    <g>
      <path d="M0,113.44c3.7-3.87,7.3-7.84,11.18-11.52,1.03-.98,2.89-1.34,4.43-1.5,12.46-1.33,20.26-9.51,21.01-22.08.37-6.16,2.03-12.13,6.85-16.11,12.1-9.98,24.37-19.77,36.96-29.12,7.97-5.91,17.87-6.8,27.39-7.81,25.08-2.66,49.79-.51,74.02,6.64.71.21,1.39.53,2.25.86v8.66c-8.16-.85-16.15-1.95-24.18-2.46-13.98-.9-27.97-1.02-41.36,4.03-3.1,1.17-5.96,3.06-8.78,4.85-3.56,2.27-4.4,5.81-2.97,9.51,1.14,2.96,2.84,5.81,4.75,8.37,2.76,3.69,5.94,7.06,8.93,10.58,4.26,5.02,4.18,7.89-.32,12.63-.59.62-1.15,1.26-1.53,1.68,14.57,14.57,29.01,29,43.61,43.61,1.45-1.35,3.15-2.93,5.56-5.17,5.55,6.21,11.01,12.33,16.82,18.83,12.34-15.16,23.8-29.24,34.9-42.89,9.25,8.54,18.37,16.97,27.49,25.39,2.1-.96,4.75-2.74,7.65-3.37,6.41-1.41,12.01.47,16.69,5.24,3.4,3.46,6.87,6.91,10.65,9.94,6.33,5.08,12.96,5.19,20.16,1.16,3.31-1.85,7.42-2.78,11.26-3.08,5.99-.46,9.64,3.66,13.05,8.05,4.13,5.32,4.39,5.67,3.26,13.19-1.18-.49-2.29-.95-3.41-1.41-1.11-.46-2.22-.9-3.65-1.48v7.57c-2.52-1.03-4.74-1.93-7.41-3.02.17,2.77.31,4.99.49,7.82-2.55-1.08-4.73-2.01-7.25-3.07v7.7c-2.61-1.12-4.84-2.07-7.34-3.14v7.68c-2.52-1.06-4.73-1.99-7.21-3.02v7.67c-2.45-1.04-4.68-1.99-7.23-3.07v7.65c-2.56-1.07-4.79-1.99-7.44-3.09.16,2.7.29,4.9.46,7.72-2.57-1-4.78-1.87-7.3-2.86v7.5c-2.58-1.04-4.83-1.95-7.39-2.99v7.59c-2.45-1.03-4.6-1.93-7.26-3.05.13,2.62.25,4.89.4,7.74-2.57-1.04-4.78-1.93-7.17-2.89-.81,3.35-.03,5.71,2.42,8.05,13.81,13.17,27.45,26.52,41.17,39.79,1.06,1.03,2.26,1.92,3.16,2.67-12.88,12.86-25.39,25.35-38.21,38.15-16.8-18.52-33.94-37.4-51.39-56.64-.32,1.28-.53,2.12-.79,3.17-2.29-.96-4.32-1.82-6.73-2.83v7.67c-2.57-1.1-4.77-2.04-7.33-3.13v7.64c-2.62-1.07-4.87-1.99-7.48-3.05.14,2.69.25,5,.39,7.73-2.59-1.06-4.84-1.97-7.35-3v7.5c-2.51-.99-4.76-1.88-7.32-2.89v7.51c-2.47-.98-4.6-1.83-7.03-2.8v7.59c-2.43-1.03-4.58-1.94-7.1-3.02v7.66c-2.67-1.12-4.89-2.06-7.56-3.18.12,2.71.22,5,.34,7.73-2.54-1.01-4.78-1.91-7.34-2.93v7.56c-2.5-1.03-4.64-1.91-7.17-2.95v7.51c-2.57-1-4.71-1.84-7.16-2.79v7.53c-2.49-1.01-4.74-1.92-7.25-2.93v7.57c-2.5-1.05-4.73-1.99-7.22-3.04v7.69c-2.44-1.04-4.66-1.97-7.14-3.02v7.62c-2.49-1.01-4.75-1.93-7.32-2.97v7.74c-4.71-1.44-9.1-2.72-13.43-4.17-.84-.28-1.57-1.18-2.15-1.94-2.64-3.47-5.25-6.98-7.81-10.51-3.52-4.85-3.47-7.8.29-12.42,26.18-32.24,52.38-64.47,78.57-96.7.78-.96,1.52-1.94,2.41-3.07-6.62-7.32-13.14-14.53-19.86-21.95,1.88-2.02,3.71-3.98,5.31-5.7-14.59-14.59-29.02-29.02-43.5-43.49-5.85,4.21-7.29,4.09-13.24-.91-5.41-4.54-11.4-8-18.41-9.52-4.33-.94-8.24-.28-11.38,2.98-3.11,3.22-6.56,6.29-8.9,10.02-2.03,3.25-3.55,7.29-3.78,11.08-.25,4.12-1.43,7.11-4.43,9.75-2.62,2.3-4.94,4.93-7.49,7.33-2.47,2.32-4.74,2.5-7.38-.2C16.38,132.43,8.15,124.47,0,116.44c0-1,0-2,0-2.99ZM92.26,292.15c3.83.06,7.21-3.23,7.27-7.08.06-3.91-3.11-7.14-7.07-7.18-4.03-.05-7.16,2.99-7.2,6.99-.04,3.98,3.07,7.21,7,7.28Z"/>
      <path d="M220.35,96.92c10.65-12.3,20.88-24.23,31.3-35.98,1.28-1.44,3.7-2.88,5.43-2.71,4.76.46,7.86-1.99,10.74-4.94,8.44-8.66,16.83-17.38,25.12-26.19,7.35-7.81,14.54-15.77,21.82-23.65.81-.88,1.75-1.65,3.66-3.44.85,4.96,2.43,8.99,2.02,12.82-1,9.32,1.8,17.48,7.06,24.59,7.54,10.2,15.81,19.87,23.98,29.6,3.52,4.19,7.58,7.93,11.37,11.91,3.59,3.77,7.82,6.09,13.17,6.13,3.29.02,5.71,1.49,7.08,4.82-7.6,7.87-15.21,15.75-22.82,23.63-5.37,5.56-11,10.9-16.07,16.73-5.75,6.61-12.9,7.99-20.98,6.86-3.33-.46-6.6-1.44-9.94-1.7-5.07-.39-9.95.6-14.21,3.61-4.33,3.06-8.76,2.94-12.82-.18-3.64-2.8-7.1-5.9-10.25-9.23-7.75-8.17-16.74-10.21-27.23-6.31-.85.32-2.36.34-2.88-.18-8.5-8.58-16.89-17.26-25.53-26.17ZM277.41,65.88c1.56,2.86,2.66,6.11,4.74,8.52,12.13,14.08,24.47,27.97,36.78,41.9,5.89,6.66,14.39,6.99,21.21.91,6.76-6.03,7.31-14.41,1.37-21.16-12.11-13.76-24.23-27.52-36.34-41.29-4.66-5.29-9.86-6.73-16.05-4.44-6.53,2.42-10.93,8.54-11.71,15.56ZM249.03,90.5c-1.14-3.83-3.33-5.46-6.71-4.91-2.7.44-4.73,1.73-4.93,4.91h11.64ZM237.07,93.08c1.15,3.49,3.23,4.95,6.26,4.89,3.01-.06,4.99-1.6,5.96-4.89h-12.22ZM295.2,119.12c-.96-3.78-3.16-5.17-6.36-5.01-3.03.15-4.9,1.77-5.77,5.01h12.13ZM295.04,121.75h-11.95c1.18,3.5,3.42,5.05,6.56,4.82,2.72-.19,4.84-1.57,5.38-4.82Z"/>
      <path d="M283.46,309.74c-6.47-3.97-13.26-8.13-19.55-11.99,12.42-12.43,24.86-24.87,37.54-37.56,3.74,6.08,8,13,12.03,19.55-10.04,10.03-19.88,19.86-30.02,30Z"/>
    </g>
  </g>
</svg>