<?xml version="1.0" encoding="UTF-8"?>
<svg id="Camada_2" xmlns="http://www.w3.org/2000/svg" viewBox="0 0 347.46 348.2">
  <g id="Camada_1-2" data-name="Camada_1">
    <g>
      <path d="M287.84,215.72c-7.23-.12-12.85-3.08-17.75-8-26.15-26.25-52.39-52.42-78.59-78.62-21.09-21.08-42.18-42.16-63.26-63.25-11.32-11.32-11.29-24.39.07-35.77,7.49-7.5,14.97-15.03,22.51-22.49,10.19-10.08,23.78-10.15,33.91-.03,47.76,47.69,95.49,95.42,143.19,143.18,10.27,10.29,10.21,23.82-.06,34.18-7.81,7.89-15.72,15.69-23.55,23.56-4.62,4.65-10.16,7.08-16.49,7.24Z"/>
      <path d="M116.93,71.62c1.1,1.04,2.1,1.94,3.05,2.89,43.4,43.4,86.75,86.85,130.22,130.17,7.62,7.59,14.23,16.46,24.56,20.55-4.05,4.07-7.9,7.93-12.6,12.65-1.12-1.46-2.3-3.4-3.86-4.97-15.84-15.92-31.98-31.54-47.54-47.72-12.22-12.71-26.37-19.3-44.26-16.86-.47-.95-.91-1.82-1.33-2.7-8.19-17.19-29.91-21.29-43.59-7.93-15.53,15.16-30.75,30.65-46.1,45.99-.88.88-1.74,1.79-2.66,2.63-4.69,4.3-11.19,4.27-15.47-.05-4.29-4.32-4.36-10.88.1-15.44,7.59-7.76,15.32-15.37,23-23.05,11.64-11.64,23.33-23.25,34.91-34.95,4.73-4.78,5.76-10.83,3.15-16.5-2.49-5.4-7.97-9.17-13.81-8.23-3.47.56-7.18,2.29-9.84,4.58-5.83,5.05-11.03,10.82-16.54,16.26-3.62,3.58-7.58,3.83-10.48.78-2.8-2.94-2.48-6.72.99-10.21,15.42-15.46,30.86-30.88,46.3-46.32.51-.51,1.09-.96,1.79-1.58Z"/>
      <path d="M237.39,263.24c-.35.41-.72.9-1.14,1.32-17.99,18-35.98,36-54,53.97-4.44,4.43-9.78,6-15.77,4.03-5.81-1.92-9.32-6.13-10.3-12.19-.86-5.33,1.06-9.75,4.83-13.51,10.34-10.3,20.69-20.59,30.95-30.97,5.35-5.41,7.21-11.95,4.84-19.25-2.26-6.97-7.25-11.27-14.46-12.63-6.95-1.31-12.67,1.23-17.56,6.15-15.93,16-31.92,31.95-47.89,47.91-4.41,4.41-8.74,8.9-13.27,13.19-5.69,5.39-13.13,5.72-20.66.14,1.39-.79,2.8-1.25,3.73-2.18,12.58-12.48,25.03-25.08,37.64-37.51,5.19-5.12,8.01-10.97,7.49-18.37-.08-1.15.58-2.68,1.41-3.52,10.6-10.74,21.26-21.44,32-32.04,5.11-5.04,11.73-5.29,16.7-.38,18.43,18.27,36.72,36.67,55.05,55.04.16.16.22.43.41.8Z"/>
      <path d="M18.1,348.2c-2.49-1.41-4.72-2.28-6.44-3.74-2.84-2.42-5.36-5.21-7.99-7.88-4.89-4.96-4.91-9.25.05-14.21,24.15-24.18,48.33-48.34,72.5-72.5,6.26-6.26,12.5-12.55,18.8-18.77,4.64-4.59,9.06-4.61,13.69-.11,2.5,2.43,4.96,4.92,7.41,7.41,5.07,5.13,5.1,9.39,0,14.49-21.51,21.53-43.04,43.04-64.56,64.56-8.82,8.82-17.57,17.71-26.52,26.4-1.85,1.8-4.46,2.83-6.94,4.36Z"/>
      <path d="M125.59,230.55c-2.97-3.03-5.66-5.77-8.08-8.23,11.07-11.26,21.82-22.92,33.37-33.74,12.6-11.81,31.89-11.74,45.2-.71,1.63,1.35,3.14,2.85,4.63,4.35,24.88,24.86,49.75,49.74,74.63,74.6,11.52,11.51,25.01,11.51,36.49.04,5.38-5.38,10.78-10.74,16.13-16.15,10.19-10.32,10.16-23.84-.11-34.18-2.36-2.38-4.89-4.59-7.42-6.94,3.12-3.11,5.84-5.81,8.66-8.62,8.15,7.5,16.05,15.01,17.87,26.74,1.72,11.06-.89,20.93-8.39,29.11-6.9,7.53-14.12,14.83-21.67,21.7-14.16,12.88-34.57,12.03-48.56-1.79-14.38-14.2-28.6-28.55-42.89-42.84-11.2-11.2-22.4-22.41-33.61-33.6-11.17-11.15-24.86-11.19-35.95-.1-10.06,10.05-20.08,20.13-30.28,30.36Z"/>
    </g>
  </g>
</svg>