<?xml version="1.0" encoding="UTF-8"?>
<svg id="Camada_2" xmlns="http://www.w3.org/2000/svg" viewBox="0 0 410.4 409.6">
  <g id="Camada_1-2" data-name="Camada_1">
    <g>
      <path d="M410.4,207.59c-2.28,5.45-3.77,11.41-6.99,16.23-6.75,10.1-17.02,14.45-29.01,14.8-3.85.11-8.75,1.32-11.26-.54-2.41-1.79-2.5-6.88-3.35-10.58-4.75-20.86-9.44-41.72-14.11-62.6-2.19-9.81-5.71-12.75-15.64-12.75-82.64,0-165.27,0-247.91,0-10.22,0-13.61,2.85-15.87,12.96-5.25,23.47-10.61,46.91-15.79,70.39-.54,2.44-1.41,3.24-3.91,3.22-8.25-.07-16.61.34-24.25-3.42-13.56-6.67-20.58-17.84-20.66-32.86-.19-37.39-.17-74.78-.02-112.18.08-21.19,15-35.78,36.72-36.41.8-.02,1.6,0,2.4,0,110.18,0,220.36.01,330.54-.02,9.87,0,18.96,1.97,26.64,8.66,6.26,5.45,10.12,12.2,11.75,20.29.18.9.47,1.78.71,2.67v122.16ZM315.99,136.43c2.66,0,5.32.12,7.97-.02,6.69-.38,11.4-5.03,11.62-11.33.23-6.54-4.25-11.72-11.11-12.16-5.56-.36-11.17-.34-16.73-.02-6.59.38-11.32,5.49-11.36,11.65-.04,6.28,4.94,11.42,11.63,11.84,2.65.17,5.31.03,7.97.04ZM260.85,136.42c2.79,0,5.59.16,8.37-.03,6.62-.46,11.27-5.29,11.37-11.59.1-6.33-4.37-11.43-11.03-11.86-5.69-.37-11.44-.37-17.13,0-6.55.43-11.22,5.77-11.06,11.91.16,6.21,4.96,11.1,11.51,11.54,2.65.18,5.31.03,7.97.03Z"/>
      <path d="M338.02,238.49H73.98c4.71-20.99,9.37-41.75,14.06-62.63h235.9c4.68,20.8,9.35,41.58,14.08,62.63Z"/>
      <path d="M126.53,342.65c1.93-5.29,3.31-10.87,5.93-15.79,3.06-5.75,3.31-10.76.01-16.45-6.87-11.87-6.68-23.94-.23-36.07,1.45-2.73,2.41-5.86,2.98-8.91,1.43-7.55,6.51-11.77,13.61-10.83,6.52.86,11,6.7,9.71,14.01-.95,5.4-2.51,10.91-4.99,15.75-2.93,5.72-3,10.55.2,16.1,6.96,12.03,6.67,24.23.03,36.43-1.36,2.5-2.38,5.37-2.77,8.17-1.03,7.27-6.02,11.89-12.83,11.33-6.79-.56-11.02-5.88-10.59-13.34-.35-.13-.71-.26-1.06-.39Z"/>
      <path d="M285.49,268.27c-2,5.4-3.51,11.06-6.15,16.13-2.86,5.51-3.1,10.32.03,15.73,7.05,12.15,6.89,24.43.17,36.79-1.41,2.6-2.24,5.63-2.79,8.56-1.38,7.37-6.39,11.63-13.23,10.85-6.67-.76-11.33-6.48-10.11-13.69.94-5.53,2.54-11.16,5.03-16.15,2.77-5.56,3.14-10.32-.03-15.74-7.1-12.14-6.94-24.43-.2-36.77,1.36-2.5,2.36-5.37,2.76-8.18,1.03-7.26,5.97-11.82,12.85-11.29,6.73.51,11,5.9,10.57,13.36.36.14.73.27,1.09.41Z"/>
      <path d="M222.73,267.29c-2.03,5.68-3.49,11.64-6.23,16.95-2.92,5.68-3.15,10.58.07,16.12,6.98,12.02,6.74,24.18.16,36.41-1.46,2.72-2.3,5.89-2.85,8.96-1.26,7.1-6.63,11.48-13.48,10.58-6.5-.85-10.5-6.49-10-13.53.43-6.11,2.09-11.75,5.33-16.91,3.07-4.9,2.97-9.64.04-14.62-7.37-12.54-7.22-25.13-.14-37.84,1.43-2.57,1.99-5.7,2.56-8.64,1.29-6.71,6.41-10.85,13.01-10.23,6.23.59,10.79,5.97,10.49,12.38.35.13.69.25,1.04.38Z"/>
    </g>
  </g>
</svg>