<?xml version="1.0" encoding="UTF-8"?>
<svg id="Camada_2" xmlns="http://www.w3.org/2000/svg" viewBox="0 0 383.44 383.29">
  <g id="Camada_1-2" data-name="Camada_1">
    <g>
      <path d="M354.14,383.29h-188.68c-.33-.17-.64-.42-.99-.5-18.51-4.42-28.21-16.61-28.21-35.55,0-56.38,0-112.76,0-169.13v-4.21h246.87c.08.65.19,1.12.19,1.6,0,58.5.09,117-.1,175.49-.05,14.29-10.35,26.94-24.09,30.89-1.66.48-3.33.94-4.99,1.42ZM259.89,338.38c39.22-.04,71.12-32.06,71.04-71.29-.08-39.06-31.95-70.88-71.02-70.92-39.24-.04-71.22,31.88-71.23,71.1,0,39.21,31.99,71.16,71.21,71.12Z"/>
      <path d="M0,157.23h113.81v4.53c0,61.71.07,123.41-.05,185.11-.03,13.42,3.36,25.56,11.29,36.42H29.2c-.94-.28-1.88-.58-2.83-.82-12.3-3.14-20.57-10.69-24.76-22.66-.65-1.86-1.08-3.81-1.61-5.71C0,288.48,0,222.85,0,157.23ZM67.38,220.82c0-9.46.02-18.93,0-28.39-.02-7.6-4.51-12.69-11.17-12.73-6.67-.04-11.28,5.07-11.28,12.61-.02,19.05-.02,38.11,0,57.16,0,7.5,4.68,12.63,11.35,12.55,6.52-.08,11.08-5.13,11.1-12.42.03-9.59,0-19.18,0-28.77Z"/>
      <path d="M0,29.23c.56-2.03,1.05-4.08,1.7-6.07C6.15,9.69,18.8.13,33.04.1,88.42-.01,143.79-.06,199.16.12c17.94.06,32.45,14.78,32.88,32.68.17,6.85.03,13.7.03,21.13h-4.04c-18.96,0-37.91-.02-56.87,0-32.69.05-57.29,24.59-57.36,57.2-.02,7.71,0,15.43,0,23.64H0C0,99.59,0,64.41,0,29.23ZM67.38,86.14c0-4.98.09-9.96-.02-14.93-.15-6.38-4.98-11.21-11.09-11.28-6.25-.07-11.25,4.85-11.32,11.42-.1,9.83-.1,19.66,0,29.49.06,6.59,5.01,11.51,11.27,11.47,6.25-.04,11.03-4.96,11.14-11.61.08-4.85.02-9.71.01-14.56Z"/>
      <path d="M136.38,151.01c0-14.86-.65-29.47.17-43.99,1-17.71,16.05-30.6,34.43-30.61,55.75-.04,111.5-.03,167.24.01,5.72,0,11.53-.21,17.15.66,15.15,2.34,26.95,14.75,27.71,30.01.72,14.53.15,29.13.15,43.93h-246.86ZM282.21,102.6c-6.07.03-11.14,5.11-11.17,11.17-.02,6.06,5.02,11.18,11.08,11.26,6.21.08,11.43-5.15,11.35-11.36-.08-6.07-5.2-11.1-11.27-11.07ZM327.04,102.6c-6.06.08-11.1,5.21-11.07,11.27.03,6.06,5.12,11.14,11.18,11.16,6.21.02,11.39-5.26,11.25-11.46-.13-6.07-5.3-11.06-11.37-10.97Z"/>
      <path d="M259.83,218.61c26.91,0,48.72,21.92,48.64,48.86-.08,26.72-21.93,48.46-48.69,48.45-26.89-.01-48.71-21.93-48.64-48.87.07-26.71,21.92-48.44,48.69-48.44Z"/>
    </g>
  </g>
</svg>