<?xml version="1.0" encoding="utf-8"?>
<!-- Generator: Adobe Illustrator 23.0.6, SVG Export Plug-In . SVG Version: 6.00 Build 0)  -->
<svg version="1.1" id="Layer_1" xmlns="http://www.w3.org/2000/svg" xmlns:xlink="http://www.w3.org/1999/xlink" x="0px" y="0px"
	 viewBox="0 0 43 118.92" style="enable-background:new 0 0 43 118.92;" xml:space="preserve">
<style type="text/css">
	.st0{fill:#FFFFFF;stroke:#FFFFFF;stroke-miterlimit:10;}
</style>
<path class="st0" d="M39.36,118.92H3.35c-1.85,0-3.35-1.51-3.35-3.37V3.37C0,1.51,1.5,0,3.35,0h35.27c1.85,0,3.35,1.51,3.35,3.37
	v6.79c0,1.86-1.5,3.37-3.35,3.37H19.1c-1.85,0-3.35,1.51-3.35,3.37v30.97c0,1.86,1.5,3.37,3.35,3.37h17.58
	c1.85,0,3.35,1.51,3.35,3.37v6.79c0,1.86-1.5,3.37-3.35,3.37H19.1c-1.85,0-3.35,1.51-3.35,3.37v34.23c0,1.86,1.5,3.37,3.35,3.37
	h20.27c1.85,0,3.35,1.51,3.35,3.37v6.42C42.71,117.41,41.21,118.92,39.36,118.92z"/>
</svg>
