<?xml version="1.0" encoding="utf-8"?>
<!-- Generator: Adobe Illustrator 23.0.6, SVG Export Plug-In . SVG Version: 6.00 Build 0)  -->
<svg version="1.1" id="Layer_1" xmlns="http://www.w3.org/2000/svg" xmlns:xlink="http://www.w3.org/1999/xlink" x="0px" y="0px"
	 viewBox="0 0 66 122.5" style="enable-background:new 0 0 66 122.5;" xml:space="preserve">
<style type="text/css">
	.st0{fill:#FFFFFF;stroke:#FFFFFF;stroke-miterlimit:10;}
</style>
<path class="st0" d="M0.58,61.34c0-25.81,2.52-42.5,7.55-50.09C13.17,3.67,21.46-0.12,33.01-0.12c13.22,0,22,4.24,26.36,12.73
	s6.53,23.77,6.53,45.84c0,19.77-0.97,33.49-2.92,41.13c-1.95,7.65-5.31,13.28-10.1,16.88c-4.79,3.61-11.29,5.41-19.5,5.41
	c-8.46,0-14.95-1.66-19.46-4.99c-4.51-3.33-7.86-8.72-10.05-16.18C1.68,93.24,0.58,80.12,0.58,61.34z M49.22,62.28
	c0-22.57-1.32-36.51-3.95-41.82c-2.63-5.31-6.58-7.97-11.85-7.97c-6.19,0-10.44,3.19-12.73,9.56c-2.29,6.37-3.44,17.11-3.44,32.22
	v6.53c0,16.85,0.93,29.14,2.79,36.88c1.86,7.74,6.32,11.61,13.38,11.61c4.34,0,8.05-2.17,11.15-6.53c3.1-4.35,4.65-16.38,4.65-36.09
	V62.28z"/>
</svg>
