<?xml version="1.0" encoding="utf-8"?>
<!-- Generator: Adobe Illustrator 23.0.6, SVG Export Plug-In . SVG Version: 6.00 Build 0)  -->
<svg version="1.1" id="Layer_1" xmlns="http://www.w3.org/2000/svg" xmlns:xlink="http://www.w3.org/1999/xlink" x="0px" y="0px"
	 viewBox="0 0 80 121" style="enable-background:new 0 0 80 121;" xml:space="preserve">
<style type="text/css">
	.st0{fill:#FFFFFF;}
</style>
<path class="st0" d="M4.5,0.47h70.86c2.37,0,4.28,1.93,4.28,4.32v16.64c0,0.9-0.28,1.79-0.81,2.52
	c-13.89,19.47-27.79,38.93-41.68,58.4c-2.66,3.73-8.59,1.23-7.7-3.28c0.01-0.06,0.02-0.11,0.04-0.17
	c1.25-5.69-10.63,26.28,22.55,25.43l2.49,0c1.17,0,2.15-0.9,2.25-2.07l0.66-7.56c0,0-3.47-0.61-6.06-2.11
	c-2.21-1.28-2.83-4.2-1.34-6.28c7.28-10.12,14.56-20.24,21.85-30.36c2.44-3.39,7.75-1.65,7.75,2.53v57.74
	c0,2.38-1.92,4.32-4.28,4.32H4.5c-2.37,0-4.28-1.93-4.28-4.32l0-17.52c0-0.9,0.28-1.78,0.8-2.51c1.87-2.63,4.49-6.32,7.63-10.71
	c6.39-8.93,6.9-9.57,11.63-16.21c6.12-8.58,7.09-10.09,12.44-17.53c2.43-3.38,4.54-6.29,6.18-8.54c0.84-1.15,2.18-1.77,3.59-1.74
	c4.4,0.08,8.57-2.24,10.96-6.22c3.27-5.46,1.59-11.37,0.94-13.18c-0.1-0.27-0.43-0.35-0.64-0.17c-2.81,2.41-18.26,15-9.94-6.95
	c-4.36-0.74-8.76,1.15-11.44,4.93c-2.45,3.45-3.13,8.01-1.91,12.13c0.37,1.24,0.09,2.58-0.66,3.63c-7.27,10.2-14.54,20.4-21.81,30.6
	C5.54,69.63,0.2,67.9,0.2,63.71L0.21,4.79C0.21,2.41,2.13,0.47,4.5,0.47z"/>
</svg>
